<?xml version="1.0" encoding="UTF-8"?>
<svg version="1.1" xmlns="http://www.w3.org/2000/svg" width="521" height="226">
<path d="M0 0 C7.18490984 6.47431436 11.17021375 14.98177598 12.15234375 24.5390625 C12.45640199 35.15771194 9.97261639 45.25192615 3.08984375 53.5390625 C-5.3115978 61.0914896 -12.66585526 64.00379939 -23.91015625 63.79296875 C-30.91778799 63.19987492 -36.26989372 60.70211342 -41.91015625 56.5390625 C-42.90015625 55.8790625 -43.89015625 55.2190625 -44.91015625 54.5390625 C-44.92473877 55.58360596 -44.93932129 56.62814941 -44.9543457 57.7043457 C-45.01231176 61.57920595 -45.08954399 65.45348401 -45.17260742 69.32788086 C-45.20586488 71.00486809 -45.23389433 72.68196747 -45.2565918 74.35913086 C-45.29012362 76.76985475 -45.34243603 79.17955012 -45.3984375 81.58984375 C-45.40802238 82.71499138 -45.40802238 82.71499138 -45.4178009 83.86286926 C-45.56347338 89.01810365 -45.56347338 89.01810365 -47.22338867 91.51245117 C-50.10727244 93.26765905 -52.64334567 92.88907792 -55.91015625 92.5390625 C-58.52608778 90.70791043 -58.8800508 89.62937884 -59.91015625 86.5390625 C-60.00866281 84.64973295 -60.04839156 82.75711711 -60.05541992 80.86523438 C-60.06179977 79.69972046 -60.06817963 78.53420654 -60.07475281 77.33337402 C-60.07586563 76.07093872 -60.07697845 74.80850342 -60.078125 73.5078125 C-60.0814534 72.20638306 -60.0847818 70.90495361 -60.08821106 69.56408691 C-60.09420194 66.80345838 -60.0960513 64.04286113 -60.09545898 61.28222656 C-60.09535805 57.77345205 -60.10893884 54.26488303 -60.12623119 50.75615692 C-60.14015279 47.38170649 -60.13944382 44.00729117 -60.140625 40.6328125 C-60.14781052 39.38657104 -60.15499603 38.14032959 -60.16239929 36.85632324 C-60.12902001 23.93772171 -58.81261626 11.7598473 -49.84765625 1.7890625 C-35.44655156 -11.53827561 -15.18554619 -11.61430322 0 0 Z M-40.83203125 11.734375 C-45.52559509 18.50651712 -46.73132951 24.35079202 -45.91015625 32.5390625 C-44.42222906 38.65211276 -42.05108425 43.5323392 -36.953125 47.34765625 C-30.55211381 51.08055953 -24.51795855 52.34234427 -17.296875 50.44921875 C-11.16796306 48.11200683 -7.17334156 44.5995002 -3.91015625 38.9140625 C-1.07714825 32.53739366 -0.56248614 25.87597961 -2.64453125 19.17578125 C-5.43213889 13.10930725 -9.9004877 8.41497709 -15.8359375 5.2734375 C-24.67255683 2.14484158 -34.68105733 4.70826251 -40.83203125 11.734375 Z " fill="#157DE6" transform="translate(81.91015625,89.4609375)"/>
<path d="M0 0 C3.37081858 0.5618031 4.62174026 1.0754749 7 3.5 C7.50793457 6.44421387 7.50793457 6.44421387 7.51757812 10.09179688 C7.5245874 10.75731567 7.53159668 11.42283447 7.53881836 12.10852051 C7.55644192 14.31235348 7.54475112 16.5149035 7.53125 18.71875 C7.53394625 20.25753016 7.53782978 21.79630866 7.54284668 23.33508301 C7.54874969 26.56665198 7.54016298 29.79777924 7.52148438 33.02929688 C7.49884671 37.14369246 7.51171457 41.25703552 7.53577423 45.3713913 C7.55034235 48.55448082 7.54557375 51.73732792 7.53526306 54.92042542 C7.53261802 56.43526843 7.53578616 57.95013437 7.54518127 59.46495056 C7.60933647 72.73252143 5.81077813 82.59465593 -3.63671875 92.3359375 C-12.00781491 100.00137101 -20.48697664 102.0199171 -31.6875 101.8125 C-41.17518539 100.91743534 -49.37925778 96.65632825 -55.71875 89.58203125 C-62.97498797 80.38723951 -64.78170218 71.06629704 -64 59.5 C-62.4448355 50.55121447 -58.29525922 41.73937497 -51.0625 36.0625 C-42.65425339 30.46753891 -34.05931213 28.55447445 -23.99609375 29.90234375 C-17.47359979 31.43544734 -13.19384768 34.37711546 -8 38.5 C-7.9906543 37.52651611 -7.98130859 36.55303223 -7.97167969 35.55004883 C-7.93168908 31.9247528 -7.86590675 28.30029737 -7.79248047 24.67553711 C-7.76432306 23.10924103 -7.74308247 21.54280425 -7.72900391 19.97631836 C-7.70750033 17.71915934 -7.66081811 15.46368261 -7.609375 13.20703125 C-7.60814636 12.51100296 -7.60691772 11.81497467 -7.60565186 11.09785461 C-7.43818525 5.48998971 -5.96028092 0.99338015 0 0 Z M-46.7734375 51.5234375 C-50.789028 57.99442091 -50.71172245 65.13952862 -50 72.5 C-48.30133213 78.7759166 -44.26443507 82.87492848 -39 86.5 C-33.20809815 89.70403081 -27.60328867 89.97872711 -21.2734375 88.34765625 C-15.55367978 86.21503181 -11.37744608 82.80237805 -8.5625 77.375 C-5.42606978 70.37077468 -4.98840316 63.70674725 -7.5 56.4375 C-10.13875789 50.34300224 -14.45502347 46.20387582 -20.421875 43.3359375 C-31.01496162 39.90120941 -39.84537614 43.35684003 -46.7734375 51.5234375 Z " fill="#157DE6" transform="translate(249,51.5)"/>
<path d="M0 0 C7.71454872 5.78901724 12.33351253 12.37275524 14.42578125 21.8203125 C15.00682043 27.72175285 14.91939847 33.65230609 14.83740234 39.57519531 C14.80048972 42.3421655 14.79638661 45.10780722 14.796875 47.875 C14.78705638 49.63803244 14.77540489 51.40105584 14.76171875 53.1640625 C14.7594931 53.98902222 14.75726746 54.81398193 14.75497437 55.66394043 C14.69015972 59.55036341 14.62925084 61.51510811 12.42578125 64.8203125 C8.9490328 65.90196757 7.09297656 66.07809251 3.67578125 64.7578125 C0.88991976 62.35887622 0.28718989 60.34425695 -0.57421875 56.8203125 C-1.44046875 57.5834375 -2.30671875 58.3465625 -3.19921875 59.1328125 C-11.11568207 65.7081338 -19.57494229 66.67599631 -29.57421875 65.8203125 C-38.98227678 63.74904243 -45.92525832 58.97889615 -51.38671875 51.0703125 C-57.27595889 40.74424618 -58.06647266 29.51896922 -55.01171875 18.1953125 C-52.01314653 9.35686363 -47.07377884 2.93906955 -39.09765625 -1.9609375 C-26.11747975 -8.23000107 -12.09163121 -7.78528044 0 0 Z M-37.38671875 13.6328125 C-42.65394245 21.30790989 -43.58598314 27.53047582 -42.57421875 36.8203125 C-40.86230294 43.09733714 -36.84501239 47.19086249 -31.57421875 50.8203125 C-25.7823169 54.02434331 -20.17750742 54.29903961 -13.84765625 52.66796875 C-8.12789853 50.53534431 -3.95166483 47.12269055 -1.13671875 41.6953125 C1.99971147 34.69108718 2.43737809 28.02705975 -0.07421875 20.7578125 C-2.71297664 14.66331474 -7.02924222 10.52418832 -12.99609375 7.65625 C-22.28420911 4.64464896 -30.63144582 6.87753957 -37.38671875 13.6328125 Z " fill="#157DE6" transform="translate(369.57421875,87.1796875)"/>
<path d="M0 0 C7.33817959 6.75929767 9.77571223 16.58868917 10.5625 26.1875 C10.21420856 29.74007264 9.71343724 30.86377927 7.25 33.375 C4.95307922 33.85601807 4.95307922 33.85601807 2.2277832 33.82910156 C1.20695145 33.82879944 0.18611969 33.82849731 -0.86564636 33.82818604 C-1.96572525 33.80754089 -3.06580414 33.78689575 -4.19921875 33.765625 C-5.3269722 33.75996521 -6.45472565 33.75430542 -7.61665344 33.74847412 C-11.22403135 33.72605631 -14.83042153 33.67584784 -18.4375 33.625 C-20.88084505 33.60494209 -23.32420564 33.58669009 -25.76757812 33.5703125 C-31.76205662 33.52617379 -37.75595776 33.45920731 -43.75 33.375 C-43.13387263 34.81853611 -42.51158142 36.25944235 -41.88671875 37.69921875 C-41.54084717 38.50190186 -41.19497559 39.30458496 -40.83862305 40.1315918 C-38.1487314 45.67485584 -33.73357405 48.39908683 -28.20703125 50.64453125 C-20.22800702 53.01667359 -13.88979503 51.20648483 -6.75 47.375 C-3.70016004 45.85008002 -1.1076631 46.13937452 2.25 46.375 C4.25 47.4375 4.25 47.4375 5.25 49.375 C5.4375 52.75 5.4375 52.75 4.25 56.375 C-2.26611431 62.68854081 -11.90494219 64.52439236 -20.625 64.8125 C-31.4929598 64.52929584 -41.1164753 61.34107429 -48.75 53.375 C-56.63335846 42.67736734 -57.94747385 32.30173016 -56.75 19.375 C-55.92742106 15.64535231 -54.7021057 12.64675347 -52.75 9.375 C-52.32589844 8.66085938 -51.90179688 7.94671875 -51.46484375 7.2109375 C-45.98355563 -0.94228773 -38.43646327 -5.18501487 -28.93359375 -7.21875 C-18.13899154 -8.59622071 -8.67298655 -6.56988037 0 0 Z M-40.33984375 13.33984375 C-42.52510744 16.49364537 -43.75 18.48540349 -43.75 22.375 C-30.22 22.375 -16.69 22.375 -2.75 22.375 C-5.31748021 13.14449738 -5.31748021 13.14449738 -11.76171875 7.1875 C-22.68436126 1.84671725 -32.73639299 4.01078714 -40.33984375 13.33984375 Z " fill="#157DE6" transform="translate(165.75,88.625)"/>
<path d="M0 0 C3.83983268 3.98482445 6.04841297 8.73912295 8.44140625 13.66015625 C9.05483131 14.90048866 9.05483131 14.90048866 9.6806488 16.1658783 C10.98039834 18.79527362 12.27211578 21.4284975 13.5625 24.0625 C14.85715614 26.69970903 16.15362147 29.33596574 17.45506287 31.96983337 C18.26279041 33.60497697 19.06656706 35.24207979 19.86585999 36.88136292 C20.23311691 37.62571091 20.60037384 38.3700589 20.97875977 39.13696289 C21.29756607 39.78806534 21.61637238 40.43916779 21.94483948 41.11000061 C23.12659887 43.2267634 24.50910895 45.09137792 26 47 C26.2461203 46.4406778 26.4922406 45.88135559 26.74581909 45.30508423 C29.30331215 39.49550952 31.8672777 33.68882375 34.43505859 27.88378906 C35.39311116 25.71558193 36.34949861 23.54663827 37.30419922 21.37695312 C38.67501001 18.2623799 40.05174418 15.15048552 41.4296875 12.0390625 C41.85684052 11.065065 42.28399353 10.0910675 42.72409058 9.08755493 C43.12435455 8.18677216 43.52461853 7.28598938 43.93701172 6.35791016 C44.28786835 5.56293121 44.63872498 4.76795227 45.00021362 3.94888306 C46 2 46 2 48 0 C51.9170163 -0.43522403 54.15241649 -0.55092928 57.5 1.625 C59 4 59 4 58.83154297 6.59106445 C57.765742 10.96034777 56.05513252 14.83400707 54.1953125 18.91796875 C53.80398636 19.7926329 53.41266022 20.66729706 53.00947571 21.56846619 C51.72116188 24.44445039 50.42322279 27.31597679 49.125 30.1875 C47.76844841 33.20588996 46.41406247 36.22524531 45.05986023 39.24468994 C44.12570865 41.32720924 43.19073068 43.40935803 42.25495911 45.4911499 C38.97867997 52.78740106 35.75132918 60.10383866 32.55078125 67.43359375 C31.68282446 69.41709305 30.81482394 71.40057321 29.94677734 73.3840332 C28.69631458 76.24203993 27.44796766 79.10087239 26.20635986 81.96273804 C25.05919443 84.60554789 23.90354621 87.24449537 22.74609375 89.8828125 C22.40943192 90.66510727 22.07277008 91.44740204 21.72590637 92.25340271 C18.86413023 98.74040204 18.86413023 98.74040204 16 101 C12.57502884 100.8776796 10.00698767 100.56643057 7 98.875 C5.39038207 95.85696637 6.15213643 93.17100976 7 90 C9.17721902 84.55882774 11.72427275 79.2819055 14.2265625 73.984375 C14.9690625 72.36402344 14.9690625 72.36402344 15.7265625 70.7109375 C16.18627441 69.73431152 16.64598633 68.75768555 17.11962891 67.75146484 C18.7622093 62.61783172 16.75649092 59.17745238 14.37316895 54.53326416 C14.01283569 53.84681824 13.65250244 53.16037231 13.28125 52.453125 C12.9044812 51.72365662 12.5277124 50.99418823 12.13952637 50.24261475 C10.93215457 47.90868146 9.71616069 45.57936342 8.5 43.25 C7.71298791 41.73075549 6.92652473 40.21122648 6.140625 38.69140625 C5.3542617 37.1744299 4.56780335 35.65750282 3.78125 34.140625 C3.19815063 33.01279602 3.19815063 33.01279602 2.60327148 31.86218262 C0.5801924 27.96707825 -1.48697709 24.10612229 -3.63671875 20.27929688 C-4.27051453 19.13433746 -4.27051453 19.13433746 -4.91711426 17.96624756 C-5.72136137 16.51767579 -6.53862987 15.07622896 -7.37097168 13.64361572 C-9.12676675 10.45894305 -10.00664307 8.30872311 -9.92773438 4.64160156 C-8.18756049 -0.3133146 -4.75022761 -0.67860394 0 0 Z " fill="#157DE6" transform="translate(449,82)"/>
<path d="M0 0 C1.4375 1.9375 1.4375 1.9375 2 5.4375 C1.4375 8.9375 1.4375 8.9375 -0.5 10.75 C-3.11497754 11.76397088 -5.33033772 12.30620615 -8.0625 12.8125 C-12.54235811 13.71443483 -14.72547678 15.24077277 -17.5625 18.9375 C-19.58944287 22.78869145 -20.05701197 26.64085172 -20.5625 30.9375 C-19.59828125 30.91429688 -18.6340625 30.89109375 -17.640625 30.8671875 C-15.74570312 30.84011719 -15.74570312 30.84011719 -13.8125 30.8125 C-12.55953125 30.78929688 -11.3065625 30.76609375 -10.015625 30.7421875 C-6.82389177 30.9227154 -5.09400064 31.03425499 -2.5625 32.9375 C-1.625 36.375 -1.625 36.375 -1.5625 39.9375 C-2.546875 41.6484375 -2.546875 41.6484375 -4.5625 42.9375 C-7.37377043 43.15464241 -9.9508345 43.22034276 -12.75 43.125 C-13.49958984 43.11146484 -14.24917969 43.09792969 -15.02148438 43.08398438 C-16.86879767 43.04868539 -18.71574066 42.99487917 -20.5625 42.9375 C-20.55583817 43.5948262 -20.54917633 44.2521524 -20.54231262 44.92939758 C-20.47604537 51.75846475 -20.4307352 58.58744088 -20.39770508 65.41674805 C-20.38259995 67.96691598 -20.36211467 70.51705786 -20.33618164 73.06713867 C-20.29987496 76.72841819 -20.28279085 80.38935485 -20.26953125 84.05078125 C-20.25404739 85.1946077 -20.23856354 86.33843414 -20.22261047 87.516922 C-20.22238388 88.57779526 -20.22215729 89.63866852 -20.22192383 90.73168945 C-20.21526199 91.66656693 -20.20860016 92.6014444 -20.20173645 93.56465149 C-20.62912078 96.37568458 -21.31454291 97.25197708 -23.5625 98.9375 C-25.5 99.3359375 -25.5 99.3359375 -27.5625 99.3125 C-28.5834375 99.32410156 -28.5834375 99.32410156 -29.625 99.3359375 C-32.18910999 98.80864069 -32.9609581 97.99686965 -34.5625 95.9375 C-34.92326355 93.56465149 -34.92326355 93.56465149 -34.90307617 90.73168945 C-34.90284958 89.67081619 -34.90262299 88.60994293 -34.90238953 87.516922 C-34.88690567 86.37309555 -34.87142181 85.2292691 -34.85546875 84.05078125 C-34.85122391 82.87863571 -34.84697906 81.70649017 -34.84260559 80.49882507 C-34.82579072 76.74898466 -34.78813232 72.99967843 -34.75 69.25 C-34.73495684 66.71029421 -34.7212678 64.17058001 -34.70898438 61.63085938 C-34.67587796 55.39955681 -34.62565028 49.16856656 -34.5625 42.9375 C-35.18898438 42.96070313 -35.81546875 42.98390625 -36.4609375 43.0078125 C-37.27820313 43.02585938 -38.09546875 43.04390625 -38.9375 43.0625 C-39.74960937 43.08570313 -40.56171875 43.10890625 -41.3984375 43.1328125 C-43.5625 42.9375 -43.5625 42.9375 -45.5625 40.9375 C-45.9375 37.5 -45.9375 37.5 -45.5625 33.9375 C-44 32 -44 32 -41.5625 30.9375 C-37.8125 30.75 -37.8125 30.75 -34.5625 30.9375 C-34.645 29.844375 -34.7275 28.75125 -34.8125 27.625 C-34.76752194 19.15413113 -31.28330372 11.66720907 -25.49609375 5.59375 C-18.76176249 -0.17464688 -8.52497149 -3.53474428 0 0 Z " fill="#157DE6" transform="translate(438.5625,53.0625)"/>
<path d="M0 0 C3.625 0.25 3.625 0.25 5.32829285 1.38012695 C7.20329303 4.08390807 6.99915124 6.14596507 6.99731445 9.41796875 C7.00354324 10.68938721 7.00977203 11.96080566 7.01618958 13.27075195 C7.00750149 14.65967195 6.9981835 16.04858813 6.98828125 17.4375 C6.98776258 18.86092122 6.98828054 20.28434316 6.98979187 21.70776367 C6.98970217 24.69037577 6.97927722 27.67271745 6.96118164 30.65527344 C6.93849432 34.47874805 6.9379505 38.30182755 6.94469929 42.12535095 C6.94804053 45.06444817 6.9414063 48.00345527 6.93157005 50.9425354 C6.92772042 52.35234099 6.92656886 53.7621566 6.9281559 55.17196655 C6.92852667 57.14201099 6.9144275 59.11204215 6.8996582 61.08203125 C6.89505081 62.20327393 6.89044342 63.3245166 6.88569641 64.47973633 C6.625 67.25 6.625 67.25 4.625 70.25 C-2.52393617 70.81737589 -2.52393617 70.81737589 -6.375 68.25 C-7.58808346 65.0825559 -7.51331997 61.91348056 -7.53613281 58.55102539 C-7.54574036 57.40626236 -7.5553479 56.26149933 -7.56524658 55.08204651 C-7.56949646 53.84969772 -7.57374634 52.61734894 -7.578125 51.34765625 C-7.58382507 50.0778038 -7.58952515 48.80795135 -7.59539795 47.49961853 C-7.60484335 44.81391822 -7.61174295 42.12832954 -7.61523438 39.44262695 C-7.62072262 36.00830836 -7.64476686 32.57438551 -7.67320633 29.14019108 C-7.69634956 25.85520959 -7.69828284 22.57020785 -7.703125 19.28515625 C-7.7154718 18.0548317 -7.7278186 16.82450714 -7.74053955 15.55690002 C-7.7360379 13.83502724 -7.7360379 13.83502724 -7.73144531 12.07836914 C-7.73691376 10.5675753 -7.73691376 10.5675753 -7.74249268 9.02626038 C-7.06285696 3.89188401 -5.20284733 0.3853961 0 0 Z " fill="#147DE7" transform="translate(286.375,81.75)"/>
<path d="M0 0 C2.93052231 1.99524923 4.64521503 3.42836485 5.4453125 6.97265625 C5.63099028 10.28390994 5.21285614 12.62981541 3.5625 15.5 C-0.26076161 17.7380068 -3.68129022 17.75280262 -8 17 C-10.5625 15.5625 -10.5625 15.5625 -12 13 C-12.5977143 9.86774718 -12.65395074 7.12634344 -12 4 C-8.57473068 -0.25563764 -5.29763755 -0.85140604 0 0 Z " fill="#157DE6" transform="translate(290,54)"/>
</svg>
